<svg width="97" height="6" viewBox="0 0 97 6" fill="none" xmlns="http://www.w3.org/2000/svg">
<path d="M90.1975 5.30312C90.2736 5.32556 90.359 5.33583 90.4446 5.33282C90.5302 5.32981 90.6128 5.31365 90.6834 5.28606L96.7975 2.88615C96.86 2.86161 96.911 2.82885 96.9463 2.79068C96.9816 2.7525 97 2.71005 97 2.66696C97 2.62387 96.9816 2.58142 96.9463 2.54324C96.911 2.50507 96.86 2.47231 96.7975 2.44777L90.6834 0.0478627C90.6129 0.019985 90.5303 0.00361332 90.4445 0.00053257C90.3587 -0.00254818 90.2731 0.00778025 90.197 0.0303918C90.1209 0.0530033 90.0572 0.08703 90.0128 0.128762C89.9684 0.170494 89.9451 0.21833 89.9454 0.267054V5.06687C89.9454 5.11554 89.9689 5.16329 90.0133 5.20494C90.0578 5.24658 90.1215 5.28054 90.1975 5.30312ZM90.8861 0.776101L95.7035 2.66696L90.8861 4.55782V0.776101Z" fill="black"/>
<path d="M0 2.66669H89.9454" stroke="black"/>
</svg>
